<?xml version="1.0" encoding="utf-8"?>
<svg version="1.1" xmlns:xlink="http://www.w3.org/1999/xlink" width="57px" height="57px" xmlns="http://www.w3.org/2000/svg">
  <g transform="matrix(1 0 0 1 -56 -46 )">
    <path d="M 84.5 47.5  C 99.62 47.5  111.5 59.38  111.5 74.5  C 111.5 89.62  99.62 101.5  84.5 101.5  C 69.38 101.5  57.5 89.62  57.5 74.5  C 57.5 59.38  69.38 47.5  84.5 47.5  Z " fill-rule="nonzero" fill="#d8dfe7" stroke="none" />
    <path d="M 84.5 47  C 99.9 47  112 59.1  112 74.5  C 112 89.9  99.9 102  84.5 102  C 69.1 102  57 89.9  57 74.5  C 57 59.1  69.1 47  84.5 47  Z " stroke-width="2" stroke="#7f7f7f" fill="none" stroke-opacity="0.862745098039216" />
  </g>
</svg>