<?xml version="1.0" encoding="utf-8"?>
<svg version="1.1" xmlns:xlink="http://www.w3.org/1999/xlink" width="47px" height="47px" xmlns="http://www.w3.org/2000/svg">
  <g transform="matrix(1 0 0 1 -33 -33 )">
    <path d="M 56.5 34  C 69.1 34  79 43.9  79 56.5  C 79 69.1  69.1 79  56.5 79  C 43.9 79  34 69.1  34 56.5  C 34 43.9  43.9 34  56.5 34  Z " fill-rule="nonzero" fill="#ffffff" stroke="none" />
    <path d="M 56.5 34  C 69.1 34  79 43.9  79 56.5  C 79 69.1  69.1 79  56.5 79  C 43.9 79  34 69.1  34 56.5  C 34 43.9  43.9 34  56.5 34  Z " stroke-width="2" stroke="#6fa3db" fill="none" />
  </g>
</svg>